<svg xmlns="http://www.w3.org/2000/svg" xmlns:xlink="http://www.w3.org/1999/xlink" width="500" zoomAndPan="magnify" viewBox="0 0 375 374.999991" height="500" preserveAspectRatio="xMidYMid meet" version="1.0"><defs><g/><clipPath id="db1362d718"><path d="M 122.820312 101.582031 L 264.660156 101.582031 L 264.660156 207.167969 L 122.820312 207.167969 Z M 122.820312 101.582031 " clip-rule="nonzero"/></clipPath><clipPath id="ec490f6559"><path d="M 122.820312 161.058594 L 264.660156 161.058594 L 264.660156 207.167969 L 122.820312 207.167969 Z M 122.820312 161.058594 " clip-rule="nonzero"/></clipPath><clipPath id="b1e336d364"><path d="M 122.820312 160.367188 L 264.660156 160.367188 L 264.660156 195.640625 L 122.820312 195.640625 Z M 122.820312 160.367188 " clip-rule="nonzero"/></clipPath><clipPath id="3f439f9ed3"><path d="M 173.628906 184.804688 L 203.203125 184.804688 L 203.203125 217.167969 L 173.628906 217.167969 Z M 173.628906 184.804688 " clip-rule="nonzero"/></clipPath><clipPath id="ceb3463ad0"><path d="M 66.394531 236.769531 L 76.144531 236.769531 L 76.144531 246.519531 L 66.394531 246.519531 Z M 66.394531 236.769531 " clip-rule="nonzero"/></clipPath><clipPath id="7a2d88be8f"><path d="M 299.058594 236.769531 L 308.808594 236.769531 L 308.808594 246.519531 L 299.058594 246.519531 Z M 299.058594 236.769531 " clip-rule="nonzero"/></clipPath></defs><g fill="#514f52" fill-opacity="1"><g transform="translate(135.417194, 250.652254)"><g><path d="M 15.34375 -2.40625 C 15.5 -1.894531 15.648438 -1.164062 15.796875 -0.21875 C 15.941406 0.71875 16.015625 1.515625 16.015625 2.171875 C 14.054688 2.171875 12.175781 2.238281 10.375 2.375 C 8.582031 2.519531 6.34375 2.78125 3.65625 3.15625 C 3.1875 0.195312 2.765625 -3.546875 2.390625 -8.078125 C 2.023438 -12.617188 1.84375 -16.398438 1.84375 -19.421875 C 2.757812 -19.660156 3.65625 -19.835938 4.53125 -19.953125 C 5.414062 -20.066406 6.296875 -20.125 7.171875 -20.125 C 7.429688 -20.125 7.6875 -20.117188 7.9375 -20.109375 C 8.1875 -20.109375 8.445312 -20.085938 8.71875 -20.046875 C 8.5625 -19.046875 8.429688 -17.71875 8.328125 -16.0625 C 8.234375 -14.40625 8.1875 -12.644531 8.1875 -10.78125 C 8.1875 -8.082031 8.21875 -6.078125 8.28125 -4.765625 C 8.351562 -3.453125 8.472656 -2.332031 8.640625 -1.40625 C 9.742188 -1.71875 10.882812 -1.960938 12.0625 -2.140625 C 13.25 -2.316406 14.34375 -2.40625 15.34375 -2.40625 Z M 15.34375 -2.40625 "/></g></g></g><g fill="#514f52" fill-opacity="1"><g transform="translate(154.587786, 250.652254)"><g><path d="M 15.9375 -21.203125 C 16.375 -19.140625 16.675781 -17.429688 16.84375 -16.078125 C 17.007812 -14.734375 17.09375 -13.460938 17.09375 -12.265625 C 17.09375 -7.460938 16.332031 -3.820312 14.8125 -1.34375 C 13.289062 1.132812 11.046875 2.375 8.078125 2.375 C 5.765625 2.375 4.015625 1.492188 2.828125 -0.265625 C 1.640625 -2.035156 1.046875 -4.578125 1.046875 -7.890625 C 1.046875 -9.929688 1.222656 -12.046875 1.578125 -14.234375 C 1.929688 -16.421875 2.300781 -17.851562 2.6875 -18.53125 C 3.0625 -18.625 3.519531 -18.703125 4.0625 -18.765625 C 4.613281 -18.835938 5.144531 -18.875 5.65625 -18.875 C 6.269531 -18.875 6.800781 -18.832031 7.25 -18.75 C 7.695312 -18.675781 8.039062 -18.570312 8.28125 -18.4375 C 8 -16.820312 7.789062 -15.21875 7.65625 -13.625 C 7.519531 -12.03125 7.453125 -10.515625 7.453125 -9.078125 C 7.453125 -6.703125 7.582031 -4.84375 7.84375 -3.5 C 8.113281 -2.15625 8.5 -1.484375 9 -1.484375 C 9.613281 -1.484375 10.078125 -2.253906 10.390625 -3.796875 C 10.710938 -5.335938 10.875 -7.546875 10.875 -10.421875 C 10.875 -11.847656 10.773438 -13.363281 10.578125 -14.96875 C 10.378906 -16.582031 10.070312 -18.285156 9.65625 -20.078125 C 10.425781 -20.410156 11.414062 -20.679688 12.625 -20.890625 C 13.832031 -21.097656 14.9375 -21.203125 15.9375 -21.203125 Z M 15.9375 -21.203125 "/></g></g></g><g fill="#514f52" fill-opacity="1"><g transform="translate(175.871736, 250.652254)"><g><path d="M 13.484375 -4.53125 C 13.046875 -2.226562 12.25 -0.460938 11.09375 0.765625 C 9.945312 2.003906 8.519531 2.625 6.8125 2.625 C 5.207031 2.625 3.769531 1.992188 2.5 0.734375 C 1.226562 -0.523438 0.492188 -2.03125 0.296875 -3.78125 C 0.890625 -4.300781 1.550781 -4.710938 2.28125 -5.015625 C 3.019531 -5.328125 3.835938 -5.539062 4.734375 -5.65625 C 5.015625 -3.851562 5.285156 -2.660156 5.546875 -2.078125 C 5.816406 -1.503906 6.171875 -1.21875 6.609375 -1.21875 C 7.203125 -1.21875 7.628906 -1.640625 7.890625 -2.484375 C 8.148438 -3.328125 8.28125 -4.664062 8.28125 -6.5 C 8.28125 -8.5625 8.195312 -10.890625 8.03125 -13.484375 C 7.875 -16.085938 7.660156 -18.460938 7.390625 -20.609375 C 7.847656 -20.921875 8.441406 -21.164062 9.171875 -21.34375 C 9.910156 -21.53125 10.675781 -21.625 11.46875 -21.625 C 12.019531 -21.625 12.523438 -21.59375 12.984375 -21.53125 C 13.441406 -21.46875 13.898438 -21.378906 14.359375 -21.265625 C 14.378906 -20.648438 14.394531 -19.957031 14.40625 -19.1875 C 14.425781 -18.425781 14.4375 -17.617188 14.4375 -16.765625 C 14.4375 -14.109375 14.367188 -11.878906 14.234375 -10.078125 C 14.097656 -8.285156 13.847656 -6.4375 13.484375 -4.53125 Z M 13.484375 -4.53125 "/></g></g></g><g fill="#514f52" fill-opacity="1"><g transform="translate(195.10186, 250.652254)"><g><path d="M 20.015625 1.640625 C 19.316406 2.097656 18.484375 2.476562 17.515625 2.78125 C 16.554688 3.09375 15.414062 3.328125 14.09375 3.484375 C 13.96875 2.296875 13.800781 1.050781 13.59375 -0.25 C 13.382812 -1.550781 13.125 -2.878906 12.8125 -4.234375 C 11.539062 -4.210938 10.394531 -4.171875 9.375 -4.109375 C 8.363281 -4.046875 7.410156 -3.957031 6.515625 -3.84375 C 6.203125 -2.945312 5.875 -2.09375 5.53125 -1.28125 C 5.195312 -0.46875 4.863281 0.273438 4.53125 0.953125 C 3.550781 0.796875 2.628906 0.484375 1.765625 0.015625 C 0.898438 -0.453125 0.222656 -1.003906 -0.265625 -1.640625 C 1.265625 -4.472656 2.59375 -7.332031 3.71875 -10.21875 C 4.851562 -13.113281 6.035156 -16.753906 7.265625 -21.140625 C 8.234375 -21.140625 9.109375 -21.09375 9.890625 -21 C 10.679688 -20.914062 11.554688 -20.753906 12.515625 -20.515625 C 14.234375 -17.773438 15.726562 -14.519531 17 -10.75 C 18.269531 -6.976562 19.273438 -2.847656 20.015625 1.640625 Z M 9.734375 -14.328125 C 9.472656 -13.347656 9.179688 -12.3125 8.859375 -11.21875 C 8.546875 -10.132812 8.210938 -9.023438 7.859375 -7.890625 C 8.535156 -7.992188 9.195312 -8.070312 9.84375 -8.125 C 10.488281 -8.1875 11.140625 -8.226562 11.796875 -8.25 C 11.453125 -9.363281 11.113281 -10.425781 10.78125 -11.4375 C 10.445312 -12.445312 10.097656 -13.410156 9.734375 -14.328125 Z M 9.734375 -14.328125 "/></g></g></g><g fill="#514f52" fill-opacity="1"><g transform="translate(218.439623, 250.652254)"><g><path d="M 7.796875 -5.03125 L 7.796875 0.75 C 7.285156 0.90625 6.539062 1.039062 5.5625 1.15625 C 4.59375 1.28125 3.710938 1.34375 2.921875 1.34375 C 2.546875 -2.988281 2.257812 -6.925781 2.0625 -10.46875 C 1.875 -14.007812 1.78125 -17.015625 1.78125 -19.484375 C 1.925781 -19.578125 2.035156 -19.644531 2.109375 -19.6875 C 2.191406 -19.726562 2.273438 -19.765625 2.359375 -19.796875 C 3.128906 -20.203125 4.019531 -20.523438 5.03125 -20.765625 C 6.039062 -21.015625 7.09375 -21.160156 8.1875 -21.203125 C 9.382812 -19.472656 10.429688 -17.78125 11.328125 -16.125 C 12.234375 -14.46875 13.070312 -12.695312 13.84375 -10.8125 C 13.84375 -13.195312 13.789062 -15.316406 13.6875 -17.171875 C 13.59375 -19.023438 13.457031 -20.535156 13.28125 -21.703125 C 14.3125 -22.023438 15.332031 -22.269531 16.34375 -22.4375 C 17.363281 -22.601562 18.367188 -22.6875 19.359375 -22.6875 C 19.421875 -21.5625 19.457031 -20.472656 19.46875 -19.421875 C 19.488281 -18.367188 19.5 -17.34375 19.5 -16.34375 C 19.5 -13.90625 19.441406 -11.347656 19.328125 -8.671875 C 19.222656 -6.003906 19.082031 -3.441406 18.90625 -0.984375 C 17.675781 -0.785156 16.660156 -0.640625 15.859375 -0.546875 C 15.054688 -0.460938 14.273438 -0.398438 13.515625 -0.359375 C 12.242188 -3.429688 11.195312 -5.804688 10.375 -7.484375 C 9.550781 -9.160156 8.703125 -10.695312 7.828125 -12.09375 C 7.804688 -11.28125 7.796875 -10.378906 7.796875 -9.390625 C 7.796875 -8.410156 7.796875 -6.957031 7.796875 -5.03125 Z M 7.796875 -5.03125 "/></g></g></g><g clip-path="url(#db1362d718)"><path fill="#9dc0e0" d="M 264.613281 158.511719 L 254.5 155.988281 C 254.5 155.988281 249.789062 169.222656 243.046875 169.855469 C 233.695312 170.730469 232.988281 157.574219 233.101562 152.058594 C 233.160156 149.097656 233.078125 146.128906 232.726562 143.191406 C 229.421875 115.726562 211.242188 101.738281 189.59375 101.738281 C 143.65625 101.738281 122.582031 130.640625 122.582031 158.511719 C 122.582031 186.265625 140.96875 209.589844 210.667969 206.875 C 264.617188 204.769531 264.613281 158.511719 264.613281 158.511719 " fill-opacity="1" fill-rule="nonzero"/></g><g clip-path="url(#ec490f6559)"><path fill="#eadcf4" d="M 211.375 194.382812 C 154.785156 196.5 130.671875 182.792969 122.792969 163.496094 C 124.996094 188.992188 145.1875 209.425781 210.667969 206.875 C 256.75 205.078125 263.46875 171.066406 264.445312 161.1875 C 259.390625 174.878906 246.140625 193.082031 211.375 194.382812 " fill-opacity="1" fill-rule="nonzero"/><path fill="#ddb6ff" d="M 210.667969 202.535156 C 150.96875 204.863281 128.917969 188.085938 123.820312 165.78125 C 123.453125 165.027344 123.109375 164.269531 122.792969 163.496094 C 124.996094 188.992188 145.1875 209.425781 210.667969 206.875 C 256.75 205.078125 263.46875 171.066406 264.445312 161.1875 C 264.050781 162.261719 263.597656 163.363281 263.09375 164.484375 C 259.617188 178.242188 248.199219 201.074219 210.667969 202.535156 " fill-opacity="1" fill-rule="nonzero"/></g><g clip-path="url(#b1e336d364)"><path fill="#ffffff" d="M 211.746094 193.398438 C 182.128906 194.554688 159.328125 191.28125 143.96875 183.679688 C 133.675781 178.582031 126.679688 171.667969 122.730469 162.6875 C 122.859375 164.476562 123.074219 166.238281 123.382812 167.972656 C 127.75 175.191406 134.339844 181.023438 143.125 185.375 C 156.742188 192.113281 176.011719 195.515625 200.515625 195.515625 C 204.164062 195.515625 207.9375 195.441406 211.820312 195.289062 C 228.265625 194.648438 241.644531 190.113281 251.578125 181.804688 C 256.449219 177.730469 260.429688 172.820312 263.488281 167.144531 C 264.113281 164.292969 264.394531 161.941406 264.515625 160.417969 C 258.667969 175.371094 244.738281 192.113281 211.746094 193.398438 " fill-opacity="1" fill-rule="nonzero"/></g><path fill="#9dc0e0" d="M 253.023438 165.660156 C 253.023438 165.660156 229.417969 156.960938 238.90625 145.265625 C 246.070312 136.433594 257.71875 152.453125 257.71875 152.453125 C 257.71875 152.453125 272.875 133.066406 281.9375 147.898438 C 289.058594 159.5625 262.378906 168.183594 259.847656 167.132812 C 257.320312 166.082031 253.023438 165.660156 253.023438 165.660156 " fill-opacity="1" fill-rule="nonzero"/><path fill="#9dc0e0" d="M 175.730469 186.976562 C 175.730469 186.976562 169.21875 218.222656 190.21875 216.117188 C 213.878906 213.746094 194.972656 185.847656 194.972656 185.847656 " fill-opacity="1" fill-rule="nonzero"/><g clip-path="url(#3f439f9ed3)"><path fill="#ffffff" d="M 188.253906 217.167969 C 184.148438 217.167969 180.855469 215.820312 178.445312 213.148438 C 171.105469 205.015625 174.644531 187.523438 174.800781 186.785156 C 174.90625 186.269531 175.410156 185.941406 175.921875 186.050781 C 176.433594 186.15625 176.765625 186.65625 176.65625 187.167969 C 176.621094 187.339844 173.160156 204.464844 179.855469 211.882812 C 182.230469 214.511719 185.6875 215.621094 190.125 215.175781 C 195.371094 214.652344 198.785156 212.777344 200.269531 209.613281 C 204.179688 201.296875 194.289062 186.527344 194.1875 186.375 C 193.894531 185.945312 194.007812 185.355469 194.441406 185.0625 C 194.878906 184.769531 195.464844 184.882812 195.757812 185.316406 C 196.195312 185.957031 206.347656 201.125 201.988281 210.414062 C 200.199219 214.226562 196.269531 216.464844 190.316406 217.058594 C 189.605469 217.132812 188.917969 217.167969 188.253906 217.167969 " fill-opacity="1" fill-rule="nonzero"/></g><path fill="#c9e0f4" d="M 184.125 97.410156 C 182.089844 94.273438 169.628906 97.070312 173.277344 90.882812 C 177.304688 84.054688 182.550781 92.351562 184.125 97.410156 " fill-opacity="1" fill-rule="nonzero"/><path fill="#c9e0f4" d="M 184.066406 85.765625 C 182.09375 85.339844 173.945312 82.167969 177.949219 78.660156 C 182.375 74.789062 184.132812 81.839844 184.066406 85.765625 " fill-opacity="1" fill-rule="nonzero"/><path fill="#c9e0f4" d="M 188.648438 82.582031 C 188.453125 80.878906 188.777344 73.46875 192.703125 75.726562 C 197.039062 78.214844 191.832031 81.558594 188.648438 82.582031 " fill-opacity="1" fill-rule="nonzero"/><path fill="#c9e0f4" d="M 186.964844 97.410156 C 189.308594 93.796875 203.671875 97.015625 199.464844 89.886719 C 194.824219 82.015625 188.78125 91.578125 186.964844 97.410156 " fill-opacity="1" fill-rule="nonzero"/><path fill="#33375a" d="M 148.304688 149.46875 C 148.304688 150.980469 147.640625 152.207031 146.820312 152.207031 C 146.003906 152.207031 145.339844 150.980469 145.339844 149.46875 C 145.339844 147.957031 146.003906 146.734375 146.820312 146.734375 C 147.640625 146.734375 148.304688 147.957031 148.304688 149.46875 " fill-opacity="1" fill-rule="nonzero"/><path fill="#33375a" d="M 160.046875 149.46875 C 160.046875 150.980469 159.382812 152.207031 158.566406 152.207031 C 157.75 152.207031 157.085938 150.980469 157.085938 149.46875 C 157.085938 147.957031 157.75 146.734375 158.566406 146.734375 C 159.382812 146.734375 160.046875 147.957031 160.046875 149.46875 " fill-opacity="1" fill-rule="nonzero"/><path fill="#33375a" d="M 152.714844 166.152344 C 150.84375 166.152344 149.375 163.925781 149.375 161.082031 C 149.375 160.734375 149.660156 160.453125 150.007812 160.453125 C 150.355469 160.453125 150.640625 160.734375 150.640625 161.082031 C 150.640625 163.109375 151.609375 164.890625 152.714844 164.890625 C 153.820312 164.890625 154.789062 163.109375 154.789062 161.082031 C 154.789062 160.734375 155.070312 160.453125 155.417969 160.453125 C 155.769531 160.453125 156.050781 160.734375 156.050781 161.082031 C 156.050781 163.925781 154.585938 166.152344 152.714844 166.152344 " fill-opacity="1" fill-rule="nonzero"/><path fill="#ff6d5a" d="M 167.324219 155.390625 C 167.828125 156.464844 166.835938 157.992188 165.109375 158.796875 C 163.382812 159.601562 161.574219 159.382812 161.070312 158.304688 C 160.566406 157.230469 161.558594 155.703125 163.285156 154.898438 C 165.011719 154.09375 166.820312 154.3125 167.324219 155.390625 " fill-opacity="1" fill-rule="nonzero"/><path fill="#ff6d5a" d="M 138.957031 155.390625 C 138.453125 156.464844 139.441406 157.992188 141.171875 158.796875 C 142.898438 159.601562 144.707031 159.382812 145.210938 158.304688 C 145.714844 157.230469 144.722656 155.703125 142.996094 154.898438 C 141.265625 154.09375 139.457031 154.3125 138.957031 155.390625 " fill-opacity="1" fill-rule="nonzero"/><path fill="#7eafce" d="M 254.851562 165.898438 L 250.054688 164.609375 C 248.171875 167.28125 245.773438 169.597656 243.046875 169.855469 C 242.398438 169.914062 241.796875 169.902344 241.230469 169.835938 C 249.117188 176.382812 254.851562 165.898438 254.851562 165.898438 " fill-opacity="1" fill-rule="nonzero"/><path fill="#eadcf4" d="M 196.027344 110.101562 C 196.027344 111.023438 195.28125 111.769531 194.355469 111.769531 C 193.429688 111.769531 192.683594 111.023438 192.683594 110.101562 C 192.683594 109.179688 193.429688 108.429688 194.355469 108.429688 C 195.28125 108.429688 196.027344 109.179688 196.027344 110.101562 " fill-opacity="1" fill-rule="nonzero"/><path fill="#eadcf4" d="M 211.25 122.894531 C 211.25 123.816406 210.503906 124.566406 209.578125 124.566406 C 208.65625 124.566406 207.90625 123.816406 207.90625 122.894531 C 207.90625 121.972656 208.65625 121.226562 209.578125 121.226562 C 210.503906 121.226562 211.25 121.972656 211.25 122.894531 " fill-opacity="1" fill-rule="nonzero"/><path fill="#eadcf4" d="M 223.730469 137.75 C 223.730469 138.671875 222.984375 139.421875 222.058594 139.421875 C 221.132812 139.421875 220.386719 138.671875 220.386719 137.75 C 220.386719 136.828125 221.132812 136.082031 222.058594 136.082031 C 222.984375 136.082031 223.730469 136.828125 223.730469 137.75 " fill-opacity="1" fill-rule="nonzero"/><path fill="#eadcf4" d="M 229.066406 154.921875 C 229.066406 155.84375 228.316406 156.589844 227.394531 156.589844 C 226.46875 156.589844 225.71875 155.84375 225.71875 154.921875 C 225.71875 154 226.46875 153.25 227.394531 153.25 C 228.316406 153.25 229.066406 154 229.066406 154.921875 " fill-opacity="1" fill-rule="nonzero"/><path fill="#eadcf4" d="M 223.730469 128.289062 C 223.730469 129.210938 222.984375 129.960938 222.058594 129.960938 C 221.132812 129.960938 220.386719 129.210938 220.386719 128.289062 C 220.386719 127.367188 221.132812 126.621094 222.058594 126.621094 C 222.984375 126.621094 223.730469 127.367188 223.730469 128.289062 " fill-opacity="1" fill-rule="nonzero"/><path fill="#eadcf4" d="M 196.964844 119.539062 C 196.964844 120.460938 196.214844 121.207031 195.292969 121.207031 C 194.367188 121.207031 193.621094 120.460938 193.621094 119.539062 C 193.621094 118.617188 194.367188 117.867188 195.292969 117.867188 C 196.214844 117.867188 196.964844 118.617188 196.964844 119.539062 " fill-opacity="1" fill-rule="nonzero"/><path fill="#eadcf4" d="M 212.925781 130.996094 C 212.925781 131.917969 212.175781 132.667969 211.25 132.667969 C 210.328125 132.667969 209.578125 131.917969 209.578125 130.996094 C 209.578125 130.074219 210.328125 129.328125 211.25 129.328125 C 212.175781 129.328125 212.925781 130.074219 212.925781 130.996094 " fill-opacity="1" fill-rule="nonzero"/><path fill="#eadcf4" d="M 187.414062 108.429688 C 187.414062 109.355469 186.664062 110.101562 185.742188 110.101562 C 184.816406 110.101562 184.066406 109.355469 184.066406 108.429688 C 184.066406 107.507812 184.816406 106.761719 185.742188 106.761719 C 186.664062 106.761719 187.414062 107.507812 187.414062 108.429688 " fill-opacity="1" fill-rule="nonzero"/><path fill="#eadcf4" d="M 204.878906 116.199219 C 204.878906 117.121094 204.128906 117.867188 203.207031 117.867188 C 202.28125 117.867188 201.53125 117.121094 201.53125 116.199219 C 201.53125 115.277344 202.28125 114.527344 203.207031 114.527344 C 204.128906 114.527344 204.878906 115.277344 204.878906 116.199219 " fill-opacity="1" fill-rule="nonzero"/><path fill="#eadcf4" d="M 203.792969 128.289062 C 203.792969 129.210938 203.042969 129.960938 202.121094 129.960938 C 201.195312 129.960938 200.445312 129.210938 200.445312 128.289062 C 200.445312 127.367188 201.195312 126.621094 202.121094 126.621094 C 203.042969 126.621094 203.792969 127.367188 203.792969 128.289062 " fill-opacity="1" fill-rule="nonzero"/><path fill="#eadcf4" d="M 215.121094 140.640625 C 215.121094 141.5625 214.371094 142.308594 213.449219 142.308594 C 212.523438 142.308594 211.773438 141.5625 211.773438 140.640625 C 211.773438 139.71875 212.523438 138.972656 213.449219 138.972656 C 214.371094 138.972656 215.121094 139.71875 215.121094 140.640625 " fill-opacity="1" fill-rule="nonzero"/><path fill="#eadcf4" d="M 223.730469 148.402344 C 223.730469 149.324219 222.984375 150.074219 222.058594 150.074219 C 221.132812 150.074219 220.386719 149.324219 220.386719 148.402344 C 220.386719 147.480469 221.132812 146.734375 222.058594 146.734375 C 222.984375 146.734375 223.730469 147.480469 223.730469 148.402344 " fill-opacity="1" fill-rule="nonzero"/><path fill="#eadcf4" d="M 205.464844 137.75 C 205.464844 138.671875 204.71875 139.421875 203.792969 139.421875 C 202.867188 139.421875 202.121094 138.671875 202.121094 137.75 C 202.121094 136.828125 202.867188 136.082031 203.792969 136.082031 C 204.71875 136.082031 205.464844 136.828125 205.464844 137.75 " fill-opacity="1" fill-rule="nonzero"/><g clip-path="url(#ceb3463ad0)"><path fill="#9dc0e0" d="M 71.269531 236.769531 C 68.578125 236.769531 66.394531 238.949219 66.394531 241.644531 C 66.394531 244.335938 68.578125 246.519531 71.269531 246.519531 C 73.960938 246.519531 76.144531 244.335938 76.144531 241.644531 C 76.144531 238.949219 73.960938 236.769531 71.269531 236.769531 " fill-opacity="1" fill-rule="nonzero"/></g><g clip-path="url(#7a2d88be8f)"><path fill="#9dc0e0" d="M 303.933594 236.769531 C 301.242188 236.769531 299.058594 238.949219 299.058594 241.644531 C 299.058594 244.335938 301.242188 246.519531 303.933594 246.519531 C 306.625 246.519531 308.808594 244.335938 308.808594 241.644531 C 308.808594 238.949219 306.625 236.769531 303.933594 236.769531 " fill-opacity="1" fill-rule="nonzero"/></g><g fill="#514f52" fill-opacity="1"><g transform="translate(107.81848, 134.780938)"><g><path d="M -7 -12.015625 C -7.113281 -11.859375 -7.21875 -11.6875 -7.3125 -11.5 C -7.414062 -11.3125 -7.515625 -11.125 -7.609375 -10.9375 C -7.703125 -10.757812 -7.796875 -10.578125 -7.890625 -10.390625 C -7.984375 -10.210938 -8.09375 -10.046875 -8.21875 -9.890625 C -8.226562 -9.867188 -8.222656 -9.851562 -8.203125 -9.84375 C -7.835938 -9.507812 -7.429688 -9.179688 -6.984375 -8.859375 C -6.546875 -8.535156 -6.0625 -8.179688 -5.53125 -7.796875 C -5 -7.421875 -4.421875 -7 -3.796875 -6.53125 C -3.171875 -6.0625 -2.492188 -5.519531 -1.765625 -4.90625 C -2.691406 -5.125 -3.566406 -5.378906 -4.390625 -5.671875 C -5.210938 -5.960938 -5.945312 -6.25 -6.59375 -6.53125 C -7.25 -6.820312 -7.804688 -7.078125 -8.265625 -7.296875 C -8.734375 -7.515625 -9.082031 -7.65625 -9.3125 -7.71875 C -9.375 -7.644531 -9.460938 -7.503906 -9.578125 -7.296875 C -9.703125 -7.085938 -9.816406 -6.863281 -9.921875 -6.625 C -10.035156 -6.394531 -10.125 -6.164062 -10.1875 -5.9375 C -10.257812 -5.71875 -10.273438 -5.5625 -10.234375 -5.46875 L -10.21875 -5.453125 C -8.40625 -4.722656 -6.554688 -4.066406 -4.671875 -3.484375 C -2.796875 -2.910156 -0.921875 -2.429688 0.953125 -2.046875 C 1.078125 -2.191406 1.203125 -2.375 1.328125 -2.59375 C 1.460938 -2.8125 1.585938 -3.035156 1.703125 -3.265625 C 1.804688 -3.472656 1.890625 -3.664062 1.953125 -3.84375 C 2.023438 -4.019531 2.082031 -4.148438 2.125 -4.234375 C 1.363281 -4.929688 0.613281 -5.601562 -0.125 -6.25 C -0.875 -6.90625 -1.617188 -7.554688 -2.359375 -8.203125 C -3.097656 -8.859375 -3.847656 -9.5 -4.609375 -10.125 C -5.378906 -10.757812 -6.175781 -11.390625 -7 -12.015625 Z M -7 -12.015625 "/></g></g></g><g fill="#514f52" fill-opacity="1"><g transform="translate(111.997874, 126.811879)"><g><path d="M -8.328125 -9.234375 C -8.597656 -8.785156 -8.804688 -8.453125 -8.953125 -8.234375 C -9.109375 -8.023438 -9.253906 -7.835938 -9.390625 -7.671875 C -9.429688 -7.597656 -9.5 -7.492188 -9.59375 -7.359375 C -9.695312 -7.234375 -9.765625 -7.144531 -9.796875 -7.09375 L -9.765625 -7.078125 C -9.003906 -6.484375 -8.195312 -5.921875 -7.34375 -5.390625 C -6.5 -4.867188 -5.640625 -4.347656 -4.765625 -3.828125 C -3.890625 -3.316406 -3.015625 -2.789062 -2.140625 -2.25 C -1.265625 -1.707031 -0.414062 -1.132812 0.40625 -0.53125 C 0.4375 -0.632812 0.539062 -0.8125 0.71875 -1.0625 C 0.894531 -1.320312 1.078125 -1.585938 1.265625 -1.859375 C 1.460938 -2.140625 1.628906 -2.40625 1.765625 -2.65625 C 1.898438 -2.90625 1.957031 -3.097656 1.9375 -3.234375 C 1.082031 -3.691406 0.234375 -4.175781 -0.609375 -4.6875 C -1.453125 -5.207031 -2.289062 -5.742188 -3.125 -6.296875 C -3.957031 -6.847656 -4.78125 -7.394531 -5.59375 -7.9375 C -6.414062 -8.488281 -7.238281 -9.023438 -8.0625 -9.546875 L -8.109375 -9.578125 Z M -8.328125 -9.234375 "/></g></g></g><g fill="#514f52" fill-opacity="1"><g transform="translate(115.127094, 121.793049)"><g><path d="M -5.28125 -8.25 C -5.289062 -8.375 -5.257812 -8.515625 -5.1875 -8.671875 C -5.113281 -8.828125 -5.039062 -8.96875 -4.96875 -9.09375 C -4.769531 -9.351562 -4.566406 -9.5 -4.359375 -9.53125 C -4.148438 -9.570312 -3.929688 -9.539062 -3.703125 -9.4375 C -3.484375 -9.34375 -3.265625 -9.210938 -3.046875 -9.046875 C -2.835938 -8.890625 -2.640625 -8.753906 -2.453125 -8.640625 C -2.117188 -8.953125 -1.816406 -9.253906 -1.546875 -9.546875 C -1.273438 -9.835938 -1.050781 -10.175781 -0.875 -10.5625 C -1.164062 -11.03125 -1.523438 -11.398438 -1.953125 -11.671875 C -2.378906 -11.941406 -2.828125 -12.125 -3.296875 -12.21875 C -3.765625 -12.3125 -4.238281 -12.3125 -4.71875 -12.21875 C -5.195312 -12.132812 -5.648438 -11.972656 -6.078125 -11.734375 C -6.515625 -11.503906 -6.90625 -11.195312 -7.25 -10.8125 C -7.59375 -10.4375 -7.859375 -9.988281 -8.046875 -9.46875 C -8.097656 -9.320312 -8.144531 -9.171875 -8.1875 -9.015625 C -8.226562 -8.859375 -8.253906 -8.703125 -8.265625 -8.546875 C -8.253906 -8.265625 -8.191406 -7.984375 -8.078125 -7.703125 C -7.972656 -7.429688 -7.835938 -7.160156 -7.671875 -6.890625 C -7.578125 -6.734375 -7.460938 -6.578125 -7.328125 -6.421875 C -7.191406 -6.273438 -7.039062 -6.148438 -6.875 -6.046875 C -6.164062 -5.484375 -5.535156 -4.984375 -4.984375 -4.546875 C -4.429688 -4.117188 -3.9375 -3.738281 -3.5 -3.40625 C -3.0625 -3.070312 -2.660156 -2.769531 -2.296875 -2.5 C -1.941406 -2.226562 -1.597656 -1.984375 -1.265625 -1.765625 C -0.859375 -1.503906 -0.453125 -1.375 -0.046875 -1.375 C 0.359375 -1.382812 0.742188 -1.484375 1.109375 -1.671875 C 1.484375 -1.859375 1.816406 -2.109375 2.109375 -2.421875 C 2.410156 -2.734375 2.671875 -3.070312 2.890625 -3.4375 C 3.273438 -3.925781 3.492188 -4.457031 3.546875 -5.03125 C 3.609375 -5.601562 3.550781 -6.148438 3.375 -6.671875 C 3.207031 -7.203125 2.914062 -7.6875 2.5 -8.125 C 2.09375 -8.5625 1.597656 -8.878906 1.015625 -9.078125 C 0.878906 -8.984375 0.742188 -8.859375 0.609375 -8.703125 C 0.484375 -8.554688 0.359375 -8.398438 0.234375 -8.234375 C 0.117188 -8.078125 0.00390625 -7.914062 -0.109375 -7.75 C -0.234375 -7.59375 -0.351562 -7.457031 -0.46875 -7.34375 C -0.269531 -7.125 -0.0546875 -6.929688 0.171875 -6.765625 C 0.410156 -6.597656 0.597656 -6.390625 0.734375 -6.140625 C 0.835938 -5.910156 0.859375 -5.675781 0.796875 -5.4375 C 0.742188 -5.207031 0.632812 -5.003906 0.46875 -4.828125 C 0.195312 -4.617188 -0.101562 -4.550781 -0.4375 -4.625 C -0.78125 -4.695312 -1.09375 -4.820312 -1.375 -5 C -1.707031 -5.21875 -2.085938 -5.492188 -2.515625 -5.828125 C -2.941406 -6.160156 -3.347656 -6.484375 -3.734375 -6.796875 C -4.128906 -7.109375 -4.460938 -7.382812 -4.734375 -7.625 C -5.003906 -7.863281 -5.148438 -8.003906 -5.171875 -8.046875 C -5.171875 -8.066406 -5.1875 -8.097656 -5.21875 -8.140625 C -5.25 -8.179688 -5.269531 -8.21875 -5.28125 -8.25 Z M -5.28125 -8.25 "/></g></g></g><g fill="#514f52" fill-opacity="1"><g transform="translate(121.151959, 114.200265)"><g><path d="M -3.28125 -13.5625 C -4.1875 -12.8125 -5.066406 -11.992188 -5.921875 -11.109375 C -6.773438 -10.222656 -7.609375 -9.363281 -8.421875 -8.53125 C -8.410156 -8.519531 -8.40625 -8.515625 -8.40625 -8.515625 C -8.40625 -8.523438 -8.398438 -8.53125 -8.390625 -8.53125 C -8.210938 -8.3125 -8.015625 -8.097656 -7.796875 -7.890625 C -7.585938 -7.679688 -7.390625 -7.488281 -7.203125 -7.3125 C -7.015625 -7.144531 -6.847656 -7 -6.703125 -6.875 C -6.566406 -6.757812 -6.476562 -6.695312 -6.4375 -6.6875 C -6.375 -6.71875 -6.28125 -6.796875 -6.15625 -6.921875 C -6.039062 -7.046875 -5.90625 -7.179688 -5.75 -7.328125 C -5.601562 -7.472656 -5.453125 -7.609375 -5.296875 -7.734375 C -5.148438 -7.867188 -5.003906 -7.957031 -4.859375 -8 L -4.828125 -8 C -3.640625 -6.925781 -2.640625 -6.003906 -1.828125 -5.234375 C -1.015625 -4.460938 -0.359375 -3.820312 0.140625 -3.3125 C 0.648438 -2.800781 1.03125 -2.410156 1.28125 -2.140625 C 1.539062 -1.878906 1.6875 -1.738281 1.71875 -1.71875 C 1.84375 -1.882812 1.988281 -2.050781 2.15625 -2.21875 C 2.320312 -2.394531 2.488281 -2.566406 2.65625 -2.734375 C 2.832031 -2.910156 3.003906 -3.085938 3.171875 -3.265625 C 3.335938 -3.453125 3.476562 -3.632812 3.59375 -3.8125 L 3.578125 -3.828125 C 2.671875 -4.679688 1.882812 -5.421875 1.21875 -6.046875 C 0.5625 -6.679688 0 -7.222656 -0.46875 -7.671875 C -0.9375 -8.117188 -1.320312 -8.484375 -1.625 -8.765625 C -1.925781 -9.054688 -2.164062 -9.289062 -2.34375 -9.46875 C -2.53125 -9.65625 -2.660156 -9.789062 -2.734375 -9.875 C -2.816406 -9.96875 -2.875 -10.035156 -2.90625 -10.078125 C -2.914062 -10.085938 -2.921875 -10.09375 -2.921875 -10.09375 C -2.929688 -10.101562 -2.941406 -10.113281 -2.953125 -10.125 L -2.90625 -10.171875 C -2.539062 -10.566406 -2.25 -10.878906 -2.03125 -11.109375 C -1.820312 -11.347656 -1.625 -11.53125 -1.4375 -11.65625 C -1.695312 -11.96875 -2 -12.296875 -2.34375 -12.640625 C -2.6875 -12.992188 -3 -13.300781 -3.28125 -13.5625 Z M -3.28125 -13.5625 "/></g></g></g><g fill="#514f52" fill-opacity="1"><g transform="translate(127.459594, 107.87713)"><g><path d="M -0.515625 -12.515625 C -0.867188 -12.734375 -1.265625 -12.863281 -1.703125 -12.90625 C -2.117188 -12.894531 -2.53125 -12.804688 -2.9375 -12.640625 C -3.351562 -12.472656 -3.734375 -12.257812 -4.078125 -12 C -4.421875 -11.75 -4.738281 -11.457031 -5.03125 -11.125 C -5.320312 -10.789062 -5.554688 -10.429688 -5.734375 -10.046875 C -5.796875 -9.890625 -5.832031 -9.734375 -5.84375 -9.578125 C -5.875 -9.035156 -5.769531 -8.523438 -5.53125 -8.046875 C -5.300781 -7.566406 -5.03125 -7.125 -4.71875 -6.71875 C -4.207031 -5.988281 -3.65625 -5.289062 -3.0625 -4.625 C -2.476562 -3.957031 -1.898438 -3.285156 -1.328125 -2.609375 C -1.109375 -2.359375 -0.875 -2.117188 -0.625 -1.890625 C -0.382812 -1.671875 -0.113281 -1.503906 0.1875 -1.390625 C 0.40625 -1.273438 0.625 -1.210938 0.84375 -1.203125 C 1.0625 -1.191406 1.273438 -1.210938 1.484375 -1.265625 C 1.691406 -1.328125 1.894531 -1.410156 2.09375 -1.515625 C 2.289062 -1.617188 2.488281 -1.738281 2.6875 -1.875 C 2.957031 -2.070312 3.210938 -2.28125 3.453125 -2.5 C 3.691406 -2.71875 3.90625 -2.960938 4.09375 -3.234375 C 4.3125 -3.515625 4.488281 -3.816406 4.625 -4.140625 C 4.769531 -4.460938 4.835938 -4.789062 4.828125 -5.125 C 4.773438 -5.507812 4.660156 -5.890625 4.484375 -6.265625 C 4.304688 -6.648438 4.101562 -7.003906 3.875 -7.328125 L 3.5625 -7.796875 C 3.226562 -8.285156 2.878906 -8.75 2.515625 -9.1875 C 2.148438 -9.625 1.796875 -10.085938 1.453125 -10.578125 C 1.273438 -10.796875 1.097656 -11.015625 0.921875 -11.234375 C 0.753906 -11.453125 0.566406 -11.664062 0.359375 -11.875 C 0.234375 -12 0.0976562 -12.113281 -0.046875 -12.21875 C -0.191406 -12.332031 -0.347656 -12.429688 -0.515625 -12.515625 Z M 1.1875 -7.5 C 1.195312 -7.476562 1.253906 -7.398438 1.359375 -7.265625 C 1.460938 -7.140625 1.582031 -6.976562 1.71875 -6.78125 C 1.84375 -6.582031 1.953125 -6.429688 2.046875 -6.328125 C 2.140625 -6.222656 2.210938 -6.128906 2.265625 -6.046875 C 2.316406 -5.960938 2.351562 -5.867188 2.375 -5.765625 C 2.40625 -5.671875 2.421875 -5.535156 2.421875 -5.359375 C 2.398438 -5.109375 2.316406 -4.867188 2.171875 -4.640625 C 2.035156 -4.421875 1.863281 -4.238281 1.65625 -4.09375 C 1.445312 -3.957031 1.222656 -3.867188 0.984375 -3.828125 C 0.742188 -3.785156 0.503906 -3.816406 0.265625 -3.921875 C -0.046875 -4.140625 -0.34375 -4.40625 -0.625 -4.71875 C -0.90625 -5.039062 -1.191406 -5.332031 -1.484375 -5.59375 C -1.804688 -5.957031 -2.109375 -6.328125 -2.390625 -6.703125 C -2.671875 -7.085938 -2.910156 -7.476562 -3.109375 -7.875 C -3.304688 -8.332031 -3.347656 -8.800781 -3.234375 -9.28125 C -3.171875 -9.5 -3.0625 -9.707031 -2.90625 -9.90625 C -2.757812 -10.101562 -2.570312 -10.234375 -2.34375 -10.296875 C -2.050781 -10.378906 -1.765625 -10.363281 -1.484375 -10.25 C -1.203125 -10.144531 -0.957031 -9.972656 -0.75 -9.734375 C -0.613281 -9.585938 -0.46875 -9.4375 -0.3125 -9.28125 C -0.164062 -9.125 -0.0859375 -9.035156 -0.078125 -9.015625 L 0.6875 -8.125 Z M 1.1875 -7.5 "/></g></g></g><g fill="#514f52" fill-opacity="1"><g transform="translate(134.96282, 101.932921)"><g><path d="M 7.4375 -4.65625 C 7.0625 -4.96875 6.648438 -5.238281 6.203125 -5.46875 C 5.765625 -5.707031 5.316406 -5.9375 4.859375 -6.15625 C 4.410156 -6.375 3.957031 -6.582031 3.5 -6.78125 C 3.039062 -6.988281 2.597656 -7.207031 2.171875 -7.4375 L 2.15625 -7.453125 L 2.1875 -7.46875 L 2.234375 -7.5 C 2.679688 -7.820312 2.984375 -8.191406 3.140625 -8.609375 C 3.304688 -9.023438 3.375 -9.460938 3.34375 -9.921875 C 3.320312 -10.609375 3.140625 -11.21875 2.796875 -11.75 C 2.460938 -12.28125 2.03125 -12.6875 1.5 -12.96875 C 0.96875 -13.257812 0.382812 -13.414062 -0.25 -13.4375 C -0.882812 -13.457031 -1.492188 -13.304688 -2.078125 -12.984375 C -2.835938 -12.628906 -3.519531 -12.21875 -4.125 -11.75 C -4.726562 -11.28125 -5.273438 -10.84375 -5.765625 -10.4375 C -5.679688 -10.320312 -5.519531 -10.09375 -5.28125 -9.75 C -5.050781 -9.40625 -4.773438 -8.984375 -4.453125 -8.484375 C -4.140625 -7.992188 -3.789062 -7.457031 -3.40625 -6.875 C -3.019531 -6.289062 -2.640625 -5.695312 -2.265625 -5.09375 C -1.890625 -4.488281 -1.523438 -3.898438 -1.171875 -3.328125 C -0.828125 -2.765625 -0.519531 -2.265625 -0.25 -1.828125 C 0.0195312 -1.398438 0.226562 -1.050781 0.375 -0.78125 C 0.53125 -0.507812 0.597656 -0.367188 0.578125 -0.359375 C 0.617188 -0.398438 0.75 -0.476562 0.96875 -0.59375 C 1.1875 -0.707031 1.421875 -0.847656 1.671875 -1.015625 C 1.929688 -1.179688 2.1875 -1.351562 2.4375 -1.53125 C 2.695312 -1.71875 2.882812 -1.894531 3 -2.0625 C 2.875 -2.25 2.707031 -2.488281 2.5 -2.78125 C 2.289062 -3.082031 2.078125 -3.398438 1.859375 -3.734375 C 1.640625 -4.066406 1.425781 -4.394531 1.21875 -4.71875 C 1.019531 -5.039062 0.863281 -5.328125 0.75 -5.578125 L 0.8125 -5.546875 C 1.164062 -5.410156 1.546875 -5.238281 1.953125 -5.03125 C 2.367188 -4.832031 2.765625 -4.617188 3.140625 -4.390625 C 3.523438 -4.160156 3.882812 -3.9375 4.21875 -3.71875 C 4.550781 -3.5 4.828125 -3.304688 5.046875 -3.140625 L 5.078125 -3.15625 C 5.535156 -3.394531 5.960938 -3.65625 6.359375 -3.9375 C 6.753906 -4.21875 7.125 -4.460938 7.46875 -4.671875 Z M -2.40625 -9.6875 C -2.15625 -10.039062 -1.867188 -10.328125 -1.546875 -10.546875 C -1.234375 -10.765625 -0.90625 -10.84375 -0.5625 -10.78125 C -0.363281 -10.757812 -0.179688 -10.675781 -0.015625 -10.53125 C 0.148438 -10.394531 0.28125 -10.226562 0.375 -10.03125 C 0.46875 -9.832031 0.507812 -9.628906 0.5 -9.421875 C 0.488281 -9.210938 0.410156 -9.03125 0.265625 -8.875 C 0.046875 -8.695312 -0.191406 -8.53125 -0.453125 -8.375 C -0.722656 -8.226562 -0.972656 -8.09375 -1.203125 -7.96875 L -1.21875 -7.953125 C -1.3125 -8.054688 -1.40625 -8.179688 -1.5 -8.328125 C -1.601562 -8.472656 -1.703125 -8.628906 -1.796875 -8.796875 C -1.898438 -8.960938 -2.003906 -9.125 -2.109375 -9.28125 C -2.210938 -9.4375 -2.3125 -9.570312 -2.40625 -9.6875 Z M -2.40625 -9.6875 "/></g></g></g></svg>